HIERARCHY
ROOT hip
{
  OFFSET 0 0 0
  CHANNELS 6 Xposition Yposition Zposition Zrotation Yrotation Xrotation
  JOINT abdomen
  {
    OFFSET 0 20.6881 -0.73152
    CHANNELS 3 Zrotation Xrotation Yrotation
    JOINT chest
    {
      OFFSET 0 11.7043 -0.48768
      CHANNELS 3 Zrotation Xrotation Yrotation
      JOINT neck
      {
        OFFSET 0 22.1894 -2.19456
        CHANNELS 3 Zrotation Xrotation Yrotation
        JOINT head
        {
          OFFSET -0.24384 7.07133 1.2192
          CHANNELS 3 Zrotation Xrotation Yrotation
          JOINT leftEye
          {
            OFFSET 4.14528 8.04674 8.04672
            CHANNELS 3 Zrotation Xrotation Yrotation
            End Site
            {
              OFFSET 1 0 0
            }
          }
          JOINT rightEye
          {
            OFFSET -3.6576 8.04674 8.04672
            CHANNELS 3 Zrotation Xrotation Yrotation
            End Site
            {
              OFFSET 1 0 0
            }
          }
        }
      }
      JOINT rCollar
      {
        OFFSET -2.68224 19.2634 -4.8768
        CHANNELS 3 Zrotation Xrotation Yrotation
        JOINT rShldr
        {
          OFFSET -8.77824 -1.95073 1.46304
          CHANNELS 3 Zrotation Xrotation Yrotation
          JOINT rForeArm
          {
            OFFSET -28.1742 -1.7115 0.48768
            CHANNELS 3 Zrotation Xrotation Yrotation
            JOINT rHand
            {
              OFFSET -22.5879 0.773209 7.07136
              CHANNELS 3 Zrotation Xrotation Yrotation
              JOINT rThumb1
              {
                OFFSET -1.2192 -0.487915 3.41376
                CHANNELS 3 Zrotation Xrotation Yrotation
                JOINT rThumb2
                {
                  OFFSET -3.37035 -0.52449 3.41376
                  CHANNELS 3 Zrotation Xrotation Yrotation
                  End Site
                  {
                    OFFSET -1.78271 -1.18214 1.43049
                  }
                }
              }
              JOINT rIndex1
              {
                OFFSET -7.75947 0.938293 5.60832
                CHANNELS 3 Zrotation Xrotation Yrotation
                JOINT rIndex2
                {
                  OFFSET -2.54057 -0.884171 1.56538
                  CHANNELS 3 Zrotation Xrotation Yrotation
                  End Site
                  {
                    OFFSET -1.62519 -0.234802 1.16502
                  }
                }
              }
              JOINT rMid1
              {
                OFFSET -8.24714 1.18213 3.41376
                CHANNELS 3 Zrotation Xrotation Yrotation
                JOINT rMid2
                {
                  OFFSET -3.10165 -0.590103 1.0647
                  CHANNELS 3 Zrotation Xrotation Yrotation
                  End Site
                  {
                    OFFSET -2.48547 -0.328903 0.83742
                  }
                }
              }
              JOINT rRing1
              {
                OFFSET -8.82822 0.546677 1.51678
                CHANNELS 3 Zrotation Xrotation Yrotation
                JOINT rRing2
                {
                  OFFSET -2.60934 -0.819778 -0.0198488
                  CHANNELS 3 Zrotation Xrotation Yrotation
                  End Site
                  {
                    OFFSET -2.33842 -0.294052 0.168128
                  }
                }
              }
              JOINT rPinky1
              {
                OFFSET -8.27202 -0.0477905 -0.4584
                CHANNELS 3 Zrotation Xrotation Yrotation
                JOINT rPinky2
                {
                  OFFSET -1.82734 -0.647385 -0.700984
                  CHANNELS 3 Zrotation Xrotation Yrotation
                  End Site
                  {
                    OFFSET -1.69225 -0.51767 -0.607171
                  }
                }
              }
            }
          }
        }
      }
      JOINT lCollar
      {
        OFFSET 2.68224 19.2634 -4.8768
        CHANNELS 3 Zrotation Xrotation Yrotation
        JOINT lShldr
        {
          OFFSET 8.77824 -1.95073 1.46304
          CHANNELS 3 Zrotation Xrotation Yrotation
          JOINT lForeArm
          {
            OFFSET 28.1742 -1.7115 0.48768
            CHANNELS 3 Zrotation Xrotation Yrotation
            JOINT lHand
            {
              OFFSET 22.5879 0.773209 7.07136
              CHANNELS 3 Zrotation Xrotation Yrotation
              JOINT lThumb1
              {
                OFFSET 1.2192 -0.487915 3.41376
                CHANNELS 3 Zrotation Xrotation Yrotation
                JOINT lThumb2
                {
                  OFFSET 3.37035 -0.52449 3.41376
                  CHANNELS 3 Zrotation Xrotation Yrotation
                  End Site
                  {
                    OFFSET 1.78271 -1.18214 1.43049
                  }
                }
              }
              JOINT lIndex1
              {
                OFFSET 7.75947 0.938293 5.60832
                CHANNELS 3 Zrotation Xrotation Yrotation
                JOINT lIndex2
                {
                  OFFSET 2.54057 -0.884171 1.56538
                  CHANNELS 3 Zrotation Xrotation Yrotation
                  End Site
                  {
                    OFFSET 1.62519 -0.234802 1.16502
                  }
                }
              }
              JOINT lMid1
              {
                OFFSET 8.24714 1.18213 3.41376
                CHANNELS 3 Zrotation Xrotation Yrotation
                JOINT lMid2
                {
                  OFFSET 3.10165 -0.590103 1.0647
                  CHANNELS 3 Zrotation Xrotation Yrotation
                  End Site
                  {
                    OFFSET 2.48547 -0.328903 0.83742
                  }
                }
              }
              JOINT lRing1
              {
                OFFSET 8.82822 0.546677 1.51678
                CHANNELS 3 Zrotation Xrotation Yrotation
                JOINT lRing2
                {
                  OFFSET 2.60934 -0.819778 -0.0198488
                  CHANNELS 3 Zrotation Xrotation Yrotation
                  End Site
                  {
                    OFFSET 2.33842 -0.294052 0.168128
                  }
                }
              }
              JOINT lPinky1
              {
                OFFSET 8.27202 -0.0477905 -0.4584
                CHANNELS 3 Zrotation Xrotation Yrotation
                JOINT lPinky2
                {
                  OFFSET 1.82734 -0.647385 -0.700984
                  CHANNELS 3 Zrotation Xrotation Yrotation
                  End Site
                  {
                    OFFSET 1.69225 -0.51767 -0.607171
                  }
                }
              }
            }
          }
        }
      }
    }
  }
  JOINT rButtock
  {
    OFFSET -8.77824 4.35084 1.2192
    CHANNELS 3 Zrotation Xrotation Yrotation
    JOINT rThigh
    {
      OFFSET 0 -1.70687 -2.19456
      CHANNELS 3 Zrotation Xrotation Yrotation
      JOINT rShin
      {
        OFFSET 0 -36.8199 0.73152
        CHANNELS 3 Zrotation Xrotation Yrotation
        JOINT rFoot
        {
          OFFSET 0.73152 -45.1104 -5.12064
          CHANNELS 3 Zrotation Xrotation Yrotation
          End Site
          {
            OFFSET -1.1221 -3.69964 12.103
          }
        }
      }
    }
  }
  JOINT lButtock
  {
    OFFSET 8.77824 4.35084 1.2192
    CHANNELS 3 Zrotation Xrotation Yrotation
    JOINT lThigh
    {
      OFFSET 0 -1.70687 -2.19456
      CHANNELS 3 Zrotation Xrotation Yrotation
      JOINT lShin
      {
        OFFSET 0 -36.8199 0.73152
        CHANNELS 3 Zrotation Xrotation Yrotation
        JOINT lFoot
        {
          OFFSET -0.73152 -45.1104 -5.12064
          CHANNELS 3 Zrotation Xrotation Yrotation
          End Site
          {
            OFFSET 1.1221 -3.69964 12.103
          }
        }
      }
    }
  }
}
MOTION
Frames:	4
Frame Time:	0.00833333
277.344 82.3996 -25.8263 -112.775 -89.4777 1553.73 -2.49076 2.68129 1.1175 -0.10407 3.71429 0.220911 -1.66635 5.60724 -2.39923 7.32884 -23.338 -3.06074 -0.0 0.0 0.0 -0.0 0.0 0.0 -5.20059e-15 -4.56966e-13 -1.78999e-14 79.5132 31.9831 0.0134848 -15.6625 -8.37583 28.9607 -0.0939705 -8.70915 -1.23361 -2.10787e-10 1.45174e-09 2.831e-09 -3.66841e-10 2.50983e-09 4.89391e-09 -2.10778e-10 1.45174e-09 2.83099e-09 7.73091 5.47488 0.417314 -2.10782e-10 1.45174e-09 2.831e-09 2.90554 0.965183 0.102902 -2.10774e-10 1.45174e-09 2.831e-09 10.2786 0.731801 0.0259123 -2.1079e-10 1.45174e-09 2.831e-09 2.22167 -0.733487 -0.20892 -5.23596e-15 -4.56965e-13 -1.82866e-14 -77.6752 28.7157 -3.85104 15.2956 -8.04863 -28.1991 0.285209 -15.0258 2.16203 -3.57596e-10 2.03018e-09 -3.1802e-09 -6.0067e-10 3.51026e-09 -5.49826e-09 -3.57604e-10 2.03019e-09 -3.18016e-09 -7.73091 5.47488 -0.417314 -3.57596e-10 2.03019e-09 -3.18019e-09 -2.90554 0.965183 -0.102902 -3.57601e-10 2.03018e-09 -3.1802e-09 -10.2786 0.731801 -0.0259123 -3.57593e-10 2.03019e-09 -3.18019e-09 -2.22167 -0.733487 0.20892 -2.03217e-16 0.0 -3.88251e-19 -0.693176 -16.4625 -0.409976 -0.267469 37.5927 0.819995 -6.889 -22.715 -13.7613 2.03217e-16 0.0 3.88251e-19 1.1899 -11.7301 4.78471 0.11046 27.9461 -0.448844 1.90547 -13.9827 4.69622
277.303 82.4044 -25.865 -110.849 -89.4403 1551.78 -2.43314 2.632 1.12205 -0.0762068 3.70099 0.221782 -1.62546 5.61142 -2.39063 7.2884 -23.2913 -3.06183 -0.0 0.0 0.0 -0.0 0.0 0.0 -2.8449e-15 -1.81149e-13 -9.80257e-15 79.4939 31.9632 -0.0527112 -15.6623 -8.37614 28.9613 -0.0949698 -8.75416 -1.24008 -3.38396e-10 1.09758e-09 1.92269e-09 -5.86635e-10 1.89866e-09 3.32257e-09 -3.38388e-10 1.09758e-09 1.92268e-09 7.73091 5.47488 0.417314 -3.38392e-10 1.09758e-09 1.92268e-09 2.90554 0.965183 0.102902 -3.38385e-10 1.09758e-09 1.92269e-09 10.2786 0.731801 0.0259123 -3.384e-10 1.09758e-09 1.92269e-09 2.22167 -0.733487 -0.20892 -2.92003e-15 -1.8115e-13 -1.01629e-14 -77.6006 29.232 -4.07675 15.5364 -8.26379 -28.6987 0.298634 -15.3667 2.21351 -2.33006e-10 1.5122e-09 -2.21141e-09 -3.90434e-10 2.61541e-09 -3.82316e-09 -2.33011e-10 1.5122e-09 -2.21138e-09 -7.73091 5.47488 -0.417314 -2.33005e-10 1.5122e-09 -2.2114e-09 -2.90554 0.965183 -0.102902 -2.3301e-10 1.5122e-09 -2.2114e-09 -10.2786 0.731801 -0.0259123 -2.33002e-10 1.5122e-09 -2.21141e-09 -2.22167 -0.733487 0.20892 -2.03217e-16 0.0 -3.88251e-19 -0.583874 -16.3557 -0.309538 -0.2634 37.5174 0.817159 -6.92577 -22.7663 -13.8161 2.03217e-16 0.0 3.88251e-19 1.24756 -11.6715 4.73727 0.110596 27.9436 -0.448893 1.91398 -14.0147 4.71684
277.255 82.4092 -25.9051 -109.875 -89.3951 1550.77 -2.37364 2.59045 1.12048 -0.0519758 3.68944 0.220714 -1.58203 5.62056 -2.38043 7.24159 -23.2607 -3.06068 -0.0 0.0 0.0 -0.0 0.0 0.0 -2.39555e-16 1.19516e-13 -9.16273e-16 79.4743 31.9425 -0.113745 -15.6578 -8.37266 28.9529 -0.0952225 -8.76607 -1.2418 -4.42278e-10 7.08317e-10 9.54557e-10 -7.65353e-10 1.22676e-09 1.64792e-09 -4.42271e-10 7.08318e-10 9.54552e-10 7.73091 5.47488 0.417314 -4.42276e-10 7.08317e-10 9.54557e-10 2.90554 0.965183 0.102902 -4.4227e-10 7.08315e-10 9.5456e-10 10.2786 0.731801 0.0259123 -4.42284e-10 7.08316e-10 9.5457e-10 2.22167 -0.733487 -0.20892 -3.56798e-16 1.19512e-13 -1.24396e-15 -77.5173 29.7359 -4.30584 15.7633 -8.46971 -29.173 0.311272 -15.6797 2.26091 -9.21993e-11 9.61531e-10 -1.13779e-09 -1.52904e-10 1.66412e-09 -1.96671e-09 -9.22029e-11 9.61533e-10 -1.13778e-09 -7.73091 5.47488 -0.417314 -9.21997e-11 9.61531e-10 -1.13778e-09 -2.90554 0.965183 -0.102902 -9.22038e-11 9.6153e-10 -1.13779e-09 -10.2786 0.731801 -0.0259123 -9.21948e-11 9.61531e-10 -1.1378e-09 -2.22167 -0.733487 0.20892 -2.03217e-16 0.0 -3.88251e-19 -0.462326 -16.2452 -0.183512 -0.261462 37.4487 0.816639 -6.97538 -22.8281 -13.8924 2.03217e-16 0.0 3.88251e-19 1.30998 -11.6107 4.70034 0.11085 27.9496 -0.449057 1.91878 -14.0489 4.72462
277.203 82.4138 -25.9444 -109.869 -89.3436 1550.72 -2.31127 2.54903 1.10212 -0.0334121 3.68601 0.215271 -1.53891 5.62673 -2.36681 7.19165 -23.2413 -3.05254 -0.0 0.0 0.0 -0.0 0.0 0.0 1.26351e-15 2.81195e-13 4.02539e-15 79.4484 31.9062 -0.150742 -15.6427 -8.35934 28.9217 -0.0944389 -8.73201 -1.23689 -4.53379e-10 4.59644e-10 4.40974e-10 -7.84204e-10 7.97117e-10 7.59824e-10 -4.53372e-10 4.59647e-10 4.40971e-10 7.73091 5.47488 0.417314 -4.53378e-10 4.59645e-10 4.40978e-10 2.90554 0.965183 0.102902 -4.53372e-10 4.59644e-10 4.40981e-10 10.2786 0.731801 0.0259123 -4.53385e-10 4.59644e-10 4.40993e-10 2.22167 -0.733487 -0.20892 1.12201e-15 2.8119e-13 3.72721e-15 -77.4209 30.2196 -4.54699 15.9711 -8.66031 -29.6115 0.322743 -15.9548 2.30273 7.72239e-12 6.54986e-10 -4.74294e-10 1.58678e-11 1.13453e-09 -8.19264e-10 7.72e-12 6.54986e-10 -4.74291e-10 -7.73091 5.47488 -0.417314 7.72174e-12 6.54985e-10 -4.74291e-10 -2.90554 0.965183 -0.102902 7.71775e-12 6.54984e-10 -4.74297e-10 -10.2786 0.731801 -0.0259123 7.72736e-12 6.54986e-10 -4.74307e-10 -2.22167 -0.733487 0.20892 -2.03217e-16 0.0 -3.88251e-19 -0.343614 -16.1446 -0.0713741 -0.264809 37.3869 0.820786 -7.02489 -22.8857 -13.9698 2.03217e-16 0.0 3.88251e-19 1.37165 -11.559 4.66504 0.111154 27.96 -0.449284 1.92144 -14.0827 4.72523
